<?xml version="1.0" encoding="UTF-8" standalone="no"?><!-- Generator: Gravit.io --><svg xmlns="http://www.w3.org/2000/svg" xmlns:xlink="http://www.w3.org/1999/xlink" style="isolation:isolate" viewBox="0 0 918 300" width="918pt" height="300pt"><defs><clipPath id="_clipPath_R9oLMqedfis9PtY7V0NK5cz43IvZ09HR"><rect width="918" height="300"/></clipPath></defs><g clip-path="url(#_clipPath_R9oLMqedfis9PtY7V0NK5cz43IvZ09HR)"><text transform="matrix(1,0,0,1,288,189.384)" style="font-family:'Source Code Pro';font-weight:400;font-size:101px;font-style:normal;fill:#1d2d50;stroke:none;">RecipeDesk</text><g><rect x="42" y="56.75" width="233" height="186.5" transform="matrix(1,0,0,1,0,0)" fill="none"/><g><path d=" M 257.128 202.453 L 52.922 202.453 C 50.912 202.453 49.281 203.759 49.281 205.367 L 49.281 217.023 C 49.281 228.272 60.713 237.422 74.766 237.422 L 183.984 237.422 C 198.037 237.422 209.469 228.272 209.469 217.023 L 209.469 208.281 L 220.864 208.281 C 222.378 213.398 227.748 217.306 234.582 217.804 L 256.171 219.375 C 256.487 219.398 256.808 219.41 257.125 219.41 C 259.753 219.41 262.312 218.623 264.267 217.195 C 266.459 215.59 267.719 213.308 267.719 210.93 C 267.719 206.256 262.968 202.453 257.128 202.453 Z  M 202.188 217.023 C 202.188 225.058 194.022 231.594 183.984 231.594 L 74.766 231.594 C 64.728 231.594 56.563 225.058 56.563 217.023 L 56.563 208.281 L 202.188 208.281 L 202.188 217.023 Z  M 259.36 212.888 C 258.668 213.395 257.776 213.646 256.83 213.567 L 235.241 211.997 C 232.223 211.778 229.729 210.321 228.498 208.281 L 257.128 208.281 C 258.952 208.281 260.438 209.47 260.438 210.93 C 260.438 211.685 260.055 212.381 259.36 212.888 Z " fill="rgb(213,11,11)"/><path d=" M 82.047 103.375 C 84.93 103.375 87.402 103.025 89.507 102.475 L 85.873 111.193 C 85.502 112.082 85.691 113.058 86.376 113.819 C 87.06 114.582 88.159 115.031 89.328 115.031 L 125.734 115.031 C 126.903 115.031 128.002 114.582 128.687 113.819 C 129.371 113.058 129.557 112.082 129.189 111.193 L 125.556 102.475 C 127.66 103.025 130.132 103.375 133.016 103.375 C 141.771 103.375 151.219 96.69 151.219 85.891 C 151.219 74.663 137.548 62.578 107.531 62.578 C 77.514 62.578 63.844 74.663 63.844 85.891 C 63.844 96.69 73.291 103.375 82.047 103.375 Z  M 107.531 68.406 C 136.329 68.406 143.938 79.844 143.938 85.891 C 143.938 93.091 138.269 97.547 133.016 97.547 C 124.649 97.547 121.803 93.464 121.711 93.33 C 120.856 91.961 118.828 91.354 117.062 91.94 C 115.297 92.526 114.397 94.102 115.002 95.554 L 120.685 109.203 L 94.378 109.203 L 100.064 95.554 C 100.661 94.12 99.773 92.578 98.04 91.978 C 96.307 91.375 94.272 91.961 93.377 93.289 C 93.26 93.464 90.413 97.547 82.047 97.547 C 76.793 97.547 71.125 93.091 71.125 85.891 C 71.125 79.844 78.734 68.406 107.531 68.406 Z " fill="rgb(65,232,65)"/><path d=" M 160.633 144.46 L 145.186 156.828 C 139.685 161.231 136.656 167.085 136.656 173.313 C 136.656 179.54 139.685 185.394 145.186 189.797 C 150.687 194.201 158.001 196.625 165.781 196.625 C 173.561 196.625 180.875 194.201 186.376 189.797 L 222.415 160.951 C 236.61 149.589 236.61 131.102 222.415 119.74 C 208.22 108.378 185.12 108.381 170.929 119.74 C 162.792 126.25 159.021 135.392 160.633 144.46 Z  M 168.111 144.895 C 166.218 137.233 169.196 129.368 176.077 123.861 C 187.436 114.772 205.908 114.772 217.267 123.861 C 228.622 132.95 228.622 147.742 217.267 156.831 L 181.228 185.677 C 177.1 188.979 171.617 190.797 165.781 190.797 C 159.945 190.797 154.463 188.979 150.334 185.677 C 146.206 182.375 143.938 177.984 143.938 173.313 C 143.938 168.641 146.209 164.253 150.334 160.948 L 167.11 147.517 C 167.973 146.832 168.348 145.847 168.111 144.895 Z " fill="rgb(65,232,65)"/><path d=" M 199.246 142.904 C 202.162 142.904 204.907 141.995 206.968 140.346 C 209.032 138.693 210.168 136.499 210.168 134.162 C 210.168 131.825 209.032 129.631 206.971 127.981 C 204.911 126.332 206.971 127.981 206.971 127.981 C 202.846 124.68 195.653 124.68 191.528 127.981 C 189.464 129.634 188.328 131.828 188.328 134.165 C 188.328 136.502 189.464 138.696 191.524 140.346 C 193.588 141.995 196.33 142.904 199.246 142.904 Z  M 196.676 132.102 C 197.36 131.551 198.274 131.248 199.25 131.248 C 200.225 131.248 201.135 131.551 201.823 132.102 C 202.512 132.65 202.89 133.381 202.89 134.162 C 202.89 134.943 202.512 135.672 201.823 136.222 C 200.451 137.324 198.052 137.324 196.676 136.222 C 195.988 135.674 195.609 134.943 195.609 134.162 C 195.609 133.381 195.984 132.653 196.676 132.102 Z " fill="rgb(65,232,65)"/><path d=" M 209.469 68.406 L 209.469 62.578 C 189.394 62.578 173.063 75.651 173.063 91.719 L 180.344 91.719 C 180.344 78.865 193.41 68.406 209.469 68.406 Z " fill="rgb(103,231,103)"/><path d=" M 67.484 123.773 L 74.766 123.773 C 74.766 114.131 64.969 106.289 52.922 106.289 L 52.922 112.117 C 60.953 112.117 67.484 117.345 67.484 123.773 Z " fill="rgb(65,232,65)"/><path d=" M 136.656 132.516 L 143.938 132.516 C 143.938 124.482 152.103 117.945 162.141 117.945 L 162.141 112.117 C 148.088 112.117 136.656 121.267 136.656 132.516 Z " fill="rgb(65,232,65)"/><path d=" M 216.75 62.578 L 224.031 62.578 L 224.031 68.406 L 216.75 68.406 L 216.75 62.578 Z " fill="rgb(103,231,103)"/><path d=" M 194.906 190.797 L 202.188 190.797 L 202.188 196.625 L 194.906 196.625 L 194.906 190.797 Z " fill="rgb(138,233,138)"/><path d=" M 54.611 184.613 C 58.048 187.367 62.621 188.882 67.484 188.882 C 72.348 188.882 76.917 187.367 80.358 184.613 C 81.097 184.022 81.77 183.357 82.404 182.605 C 85.946 182.291 89.219 181.122 91.957 179.295 L 105.864 192.662 C 106.519 193.291 107.473 193.67 108.496 193.708 C 108.551 193.711 108.605 193.711 108.66 193.711 C 109.625 193.711 110.549 193.405 111.234 192.857 L 131.84 176.364 C 132.564 175.784 132.95 174.988 132.903 174.172 C 132.855 173.353 132.382 172.59 131.599 172.065 L 114.911 160.919 C 117.186 158.728 118.646 156.111 119.032 153.284 C 119.975 152.78 120.805 152.238 121.544 151.646 C 128.643 145.967 128.643 136.721 121.544 131.041 C 118.107 128.287 113.535 126.772 108.671 126.772 C 104.943 126.772 101.382 127.664 98.375 129.322 C 95.368 127.664 91.807 126.772 88.076 126.772 C 83.216 126.772 78.643 128.287 75.206 131.038 C 74.471 131.627 73.794 132.291 73.16 133.049 C 69.068 133.41 65.282 134.859 62.333 137.222 C 59.38 139.585 57.571 142.616 57.12 145.888 C 56.173 146.392 55.343 146.934 54.607 147.526 C 48.313 152.561 47.603 160.397 52.467 166.071 C 47.607 171.742 48.32 179.578 54.611 184.613 Z  M 108.904 186.481 L 96.591 174.644 C 98.204 172.03 98.837 169.055 98.32 166.115 L 98.43 166.027 C 102.118 166.444 105.842 165.931 109.111 164.634 L 123.878 174.499 L 108.904 186.481 Z  M 59.759 164.011 C 55.503 160.601 55.503 155.056 59.759 151.646 C 60.429 151.11 61.259 150.638 62.369 150.163 C 63.56 149.653 64.302 148.657 64.292 147.576 C 64.277 145.218 65.409 143.006 67.484 141.342 C 69.545 139.696 72.283 138.79 75.21 138.79 L 75.294 138.79 C 76.637 138.79 77.871 138.198 78.505 137.251 C 79.098 136.362 79.688 135.701 80.358 135.165 C 84.486 131.86 91.676 131.86 95.805 135.165 C 97.17 136.257 99.587 136.257 100.953 135.165 C 105.081 131.86 112.271 131.86 116.4 135.165 C 120.656 138.574 120.656 144.119 116.4 147.529 C 115.726 148.068 114.9 148.537 113.797 149.009 C 112.603 149.519 111.86 150.516 111.867 151.6 C 111.885 153.96 110.753 156.172 108.678 157.833 C 105.926 160.033 101.983 160.858 98.164 160.054 C 96.904 159.788 95.575 160.077 94.662 160.808 L 91.804 163.093 C 90.886 163.827 90.526 164.897 90.857 165.899 C 91.869 168.968 90.832 172.112 88.083 174.315 C 86.022 175.961 83.285 176.868 80.358 176.868 C 80.328 176.868 80.299 176.865 80.274 176.868 C 78.931 176.868 77.696 177.459 77.063 178.409 C 76.473 179.292 75.887 179.957 75.213 180.493 C 70.954 183.902 64.026 183.902 59.766 180.493 C 55.51 177.083 55.51 171.538 59.766 168.128 C 61.182 166.992 61.182 165.147 59.759 164.011 Z " fill="rgb(65,232,65)"/></g></g></g></svg>